<?xml version="1.0" encoding="utf-8"?>
<!-- Generator: Adobe Illustrator 16.0.3, SVG Export Plug-In . SVG Version: 6.00 Build 0)  -->
<!DOCTYPE svg PUBLIC "-//W3C//DTD SVG 1.1//EN" "http://www.w3.org/Graphics/SVG/1.1/DTD/svg11.dtd">
<svg version="1.1" id="Capa_1" xmlns="http://www.w3.org/2000/svg" xmlns:xlink="http://www.w3.org/1999/xlink" x="0px" y="0px"
	 width="456px" height="456px" viewBox="0 0 456 456" enable-background="new 0 0 456 456" xml:space="preserve">
<g>
	<path fill="#18833E" d="M37.02,152.836c0,0,0.335,61.245,78.544,60.936c0,0,40.951,1.237,63.44-25.673V61.896h-30.881
		l-0.894,86.609c0,0,0.671,27.22-32.895,26.809c0,0-28.979-0.207-32.336-27.427l-0.336-85.991H37.02V152.836z"/>
	<path fill="#7AB941" d="M260.234,61.896h-85.929v149.71h43.636l0.671-56.915h41.622c46.993-12.991,41.622-43.305,41.622-43.305
		C307.228,67.464,260.234,61.896,260.234,61.896z M257.774,108.294c0,17.528-17.009,18.353-17.009,18.353h-22.153V89.941h22.38
		C258.895,93.241,257.774,108.294,257.774,108.294z"/>
	<polygon fill="#D21B46" points="260.234,61.896 260.234,97.159 321.996,97.159 321.996,211.606 371.674,211.606 371.674,96.54 
		431.422,97.777 431.422,61.896 	"/>
	<path fill="#828386" d="M374.443,29.108c0,14.35-12.947,25.983-28.909,25.983s-28.909-11.633-28.909-25.983
		c0-14.349,12.947-25.982,28.909-25.982S374.443,14.759,374.443,29.108z"/>
	<text transform="matrix(1.0852 0 0 1 73.2129 270.5879)"><tspan x="0" y="0" fill="#333333" stroke="#666666" stroke-miterlimit="10" font-family="'Montserrat-Thin'" font-size="42.0674">MÁQUINA DE </tspan><tspan x="-47.663" y="50.48" fill="#333333" stroke="#666666" stroke-miterlimit="10" font-family="'Montserrat-Thin'" font-size="42.0674">ENVEJECIMIENTO</tspan></text>
	<g>
		<g>
			<path fill="#777677" d="M47.915,423.29l2.837-2.077l1.784,2.077l2.392-2.077l1.217,2.077l2.633-2.077l1.136,2.077h1.945v-0.667
				c0,0-0.97-1.174,0.729-1.8c0,0,1.825,0.429,0.973,1.723v0.744h1.705v-3.016c0,0-0.082-0.508,0.404-0.508h0.891
				c0,0,0.611,0.116,0.648-1.02l0.53-11.275c0,0,1.175-1.136,2.512,0l0.367,11.706c0,0,0.605,1.136,1.051,0.194l0.527-14.448
				l-37.66-0.231C34.537,404.692,35.958,413.812,47.915,423.29z"/>
			<path fill="#777677" d="M96.232,418.513c0,0-1.012-0.276-1.054,1.171v2.509c0,0,0.163,0.431,0.813,0.431h1.217l1.663-1.604
				v-1.764c0,0-0.042-0.746-0.407-0.766L96.232,418.513z"/>
			<path fill="#777677" d="M73.046,425.324c0,0-0.808-0.155-0.85,0.784v1.02c0,0,0.081,0.661,0.687,0.622l2.111,0.006v-2.441
				L73.046,425.324z"/>
			<path fill="#777677" d="M67.819,425.872c0,0,0.121-0.567,0.608-0.558h1.66c0,0,0.367,0.087,0.404,0.558v1.528
				c0,0-0.079,0.316-0.404,0.355c-0.325,0.033-1.985,0-1.985,0s-0.323-0.16-0.284-0.474
				C67.859,426.968,67.819,425.872,67.819,425.872z"/>
			<path fill="#777677" d="M54.239,426.676l4.258,1.938v-2.582h-4.175C54.322,426.031,54.097,426.224,54.239,426.676z"/>
			<path fill="#777677" d="M59.331,426.543c0,0-0.209-0.983,0.703-0.865l3.163-0.01c0,0,0.65,0.117,0.629,0.867v1.922
				c0,0-0.081,0.938-0.871,1.039l-2.087-0.101c0,0-0.934-0.137-1.442-0.567L59.331,426.543z"/>
			<path fill="#777677" d="M51.988,399.969h-15.87c0,0-2.553-0.174-1.945,3.646h19.64C53.813,403.614,54.726,400.794,51.988,399.969
				z M52.78,402.322c-0.121-0.472-0.913-0.529-0.913-0.529H36.181c-0.974-0.238-0.731,0.529-0.731,0.529h-0.546
				c-0.061-1.295,1.033-1.295,1.033-1.295h15.932C53.449,401.027,52.78,402.322,52.78,402.322z"/>
			<path fill="#777677" d="M39.645,392.923c0,0,3.589,7.284,9.668,0.587l-0.973,5.465h-8.696V392.923z"/>
			<path fill="#777677" d="M44.57,388.578c-1.274,0-2.309,0.972-2.309,2.173c0,1.2,1.035,2.172,2.309,2.172
				c1.277,0,2.313-0.972,2.313-2.172C46.883,389.55,45.847,388.578,44.57,388.578z M44.479,391.983c-0.452,0-0.82-0.551-0.82-1.232
				c0-0.684,0.368-1.236,0.82-1.236c0.454,0,0.822,0.553,0.822,1.236C45.301,391.433,44.933,391.983,44.479,391.983z"/>
			<path fill="#777677" d="M64.484,389.38c0,0-0.941-0.097-1.125,0.784c0,0,0.487,2.467,0.304,3.699h0.608
				c0,0,0.488-1.557,0.913-2.187C65.184,391.677,65.404,389.418,64.484,389.38z"/>
			<path fill="#777677" d="M60.768,398.975c0,0,0.524,1.485,1.172,0c0,0-0.527-2.664,1.419-2.39c0,0,2.236-0.221,1.848,1.515v0.714
				c0,0-0.71,0.267-0.265,0.823c0,0,0.566,0.589,1.133-0.431c0,0,0.608-3.601-0.69-3.717c0,0-4.077-1.155-4.324,0.431
				L60.768,398.975z"/>
			<path fill="#777677" d="M110.299,401.557h-12.16c0,0-0.647,0.158-0.729-0.784l0.039-1.798c0,0-0.039-0.705,0.976-0.472
				l3.443-0.046c0,0,0.731-0.934-0.082-1.716h-4.337l0.021-1.732c0,0,1.581-0.321-0.032-0.854l0.032-2.199l2.522,0.529l0.121-1.204
				h0.608c0,0,0.488,1.232,1.157,1.791c0,0,1.125-1.999-0.029-4.197l-1.096,1.525h-0.761l0.031-0.885l-2.37,0.649l-0.184-1.939
				c0,0,0.976-0.705,0-1.584l-0.121-8.225c0,0,0.545-4.149-3.021-4.347H75.642c0,0-2.554,0.002-2.675,2.899v4.07
				c0,0-2.632,0.431-2.795,2.43v13.78l-0.976,1.564v3.918c0,0-0.121,0.823,0.566,0.741h2.434c0,0,0.973,0.981,2.229,0.043
				l3.934-0.043c0,0,0.931-4.46-0.81-5.596l-0.163-14.959c0,0-0.244-0.546,0.446-0.664l5.837,0.039c0,0,1.054,0.194,1.054,1.176
				l-0.081,10.493l1.337,1.489l3.04,0.038l0.039,1.252l2.476,2.034l2.675-0.039l0.81-0.477l0.323,3.417c0,0-0.16,1.487,1.825,2.349
				l-0.121,0.391l-21.485,0.276c0,0-0.973-0.161-0.892,1.134l0.443,13.196c0,0-0.037,0.782,0.774,0.744c0,0,1.177-0.395,1.214,0.741
				v1.37c0,0,0.608,0.861,1.663,0.47v-4.542c0,0-0.202-0.782,0.404-0.743c0,0,0.976,0.272,0.897-0.47v-1.959l0.97-1.065v-1.086
				c0,0-0.082-0.51,0.608-0.391l3.687,0.039c0,0,0.813-0.081,0.771,0.622l-0.205,3.017l1.138,0.943c0,0,0.647-0.354,0.244-0.707
				l-0.569-0.118l-0.079-0.431l0.446-0.118l0.04-1.136c0,0,2.066-1.956,3.485,0.156l-0.162,5.054c0,0,0.566,0.978,1.783,0.193
				v-3.014l9.648-0.118v1.803C101.868,418.277,109.531,409.621,110.299,401.557z M88.938,394.154H85.88l0.016-3.403
				c0,0-0.199-0.863,0.771-0.626l1.259-0.042l1.012,0.668V394.154z M88.534,388.752h-2.192c0,0-0.443,0.276-0.485-1.329l0.04-4.427
				c0,0,0.247-1.368-1.416-1.76l-9,0.038c0,0-0.524-2.194,1.5-1.995l10.783,0.154c0,0,1.5-0.47,1.419,1.605l0.003,7.282
				L88.534,388.752z M94.938,396.818h-3.566l-0.729-0.869l0.163-0.344h4.133V396.818z M94.856,393.863l-0.566,0.291h-3.325
				l-0.16-4.071l1.537,0.158l1.463,0.51l1.306,1.232L94.856,393.863z M94.533,387.931h-1.217l-0.813,0.647H91.29
				c0,0-0.811,0.135-0.527-1.232l0.566-0.041l-0.566-1.057l-0.205-5.795c0,0,0.247-2.271-1.783-2.349l-13.741,0.116
				c0,0-0.648-2.311,2.636-2.311l16.012,0.315c0,0,1.582-0.276,1.418,2.271l0.011,8.26L94.533,387.931z"/>
			<ellipse fill="#777677" cx="56.468" cy="375.402" rx="0.566" ry="0.703"/>
			<ellipse fill="#777677" cx="65.078" cy="385.229" rx="0.796" ry="0.821"/>
			<path fill="#777677" d="M66.461,383.117l-1.157-0.648l-5.045-6.813c0,0-1.946-4.58-5.413-3.172c0,0-1.786,0.647-1.925,2.818
				l-0.994,0.296L40.74,388.812c0,0-1.822,2.82,1.276,5.405c0,0,4.441,2.113,6.083-1.294l0.851-1.082l7.298-10.663
				c0,0-0.063-0.942-0.855-0.293l-6.079,9.042c0,0-0.913-3.344-4.834-3.344c0,0-0.455-0.533,0.456-0.943l7.417-8.75
				c0,0,1.666-1.762,1.015,0l8.412,8.868c0,0,1.458,0.354,1.094,1.878c0,0-0.427,1.116,0.485,1c0,0,1.945,0,2.189,0.47
				c0,0,1.034,0.409,1.277-1.057l0.545-2.563C67.371,385.485,67.982,384.233,66.461,383.117z M44.55,387.462
				c1.926,0,3.488,1.509,3.488,3.368c0,1.858-1.562,3.367-3.488,3.367s-3.485-1.509-3.485-3.367
				C41.065,388.971,42.624,387.462,44.55,387.462z M56.468,377.28c-1.096,0-1.988-0.877-1.988-1.957s0.892-1.957,1.988-1.957
				c1.101,0,1.993,0.877,1.993,1.957S57.569,377.28,56.468,377.28z M65.226,387.423c-0.959,0-1.736-0.869-1.736-1.943
				c0-1.072,0.776-1.939,1.736-1.939c0.955,0,1.733,0.867,1.733,1.939C66.959,386.554,66.181,387.423,65.226,387.423z"/>
			<path fill="#777677" d="M49.313,387.854c0,0-1.479-1.843-2.817-1.804c0,0-0.488-0.626,0-0.821l6.122-7.085
				c0,0,0.527-0.667,1.012,0l1.012,1.097c0,0,0.65,0.624,0.247,1.015L49.313,387.854z"/>
		</g>
		<path fill="#1F3E94" d="M121.164,412.208c5.677-19.267,0-29.357,0-29.357l-6.648,3.199l-4.217-7.201l7.461-3.446
			c-7.94-14.88-22.581-20.389-22.581-20.389l-2.392,5.668l-7.943-2.978l2.918-5.64c-15.078-6.106-30.728,0-30.728,0l3,5.795
			l-8.045,3.554l-3.464-6.96c-18.729,10.69-21.404,20.949-21.404,20.949l7.416,3.014l-3.646,6.813l-7.297-2.378
			c-6.202,13.478,0,29.28,0,29.28l7.176-2.469l3.31,6.813l-7.445,2.938c9.121,14.918,22.679,20.437,22.679,20.437l3.1-6.459
			l7.421,2.936l-2.8,6.108c13.014,6.813,31.5,0,31.5,0l-2.801-5.99l7.662-3.054l2.921,6.459c14.35-5.99,21.603-20.437,21.603-20.437
			l-6.647-3.292l2.918-7.203L121.164,412.208z M72.479,434.681c-22.365,0-40.496-16.84-40.496-37.615
			c0-20.778,18.131-37.62,40.496-37.62c22.363,0,40.497,16.842,40.497,37.62C112.977,417.841,94.843,434.681,72.479,434.681z"/>
	</g>
	<g>
		<g>
			<g>
				<path fill="#1F3E94" d="M338.716,415.986c0,0,2.284,2.384,4.5,0v-30.436c0,0-0.068-2.694,2.014-2.507l55.327-0.01
					c0,0,13.5,4.88,13.603,12.021v22.261c0,0,2.268,3.01,4.229,0l-0.504-27.147c0,0-16.925-11.319-23.976-10.851l-50.762-0.013
					c0,0-4.832-0.456-4.767,3.305L338.716,415.986z"/>
				<path fill="#1F3E94" d="M338.853,419.336c0,0-2.017,1.879,0,4.323h76.363c0,0,2.115,0.283,3.173-1.408v-2.915h-32.187
					l-0.809,1.317l-14.407,0.021l-0.803-1.339H338.853z"/>
			</g>
			<g>
				<path fill="#4D4D4D" d="M395.317,377.723c0,0-3.173,2.011-1.156,3.664l15.917,14.981c0,0,1.156,1.455,2.368,0l8.764-7.655
					c0,0,1.209-0.894-0.352-1.974l-16.222-15.453c0,0-1.206-1.41-2.468,0L395.317,377.723z"/>
				<path fill="#CCCCCC" d="M397.384,380.1c0,0.45-0.384,0.815-0.854,0.815c-0.473,0-0.858-0.365-0.858-0.815
					c0-0.447,0.386-0.813,0.858-0.813C397,379.287,397.384,379.652,397.384,380.1z"/>
				<polygon fill="#808080" points="396.345,383.034 394.362,385.268 394.362,386.428 392.479,388.526 392.817,389.058 
					395.671,387.301 396.746,387.365 398.521,385.489 				"/>
				<polygon fill="#808080" points="400.944,387.28 398.962,389.511 398.962,390.67 397.084,392.768 397.42,393.303 
					400.273,391.551 401.348,391.61 403.124,389.739 				"/>
				<polygon fill="#808080" points="405.395,391.86 403.415,394.093 403.415,395.25 401.531,397.346 401.867,397.883 
					404.721,396.127 405.796,396.19 407.573,394.315 				"/>
				<polygon fill="#808080" points="409.939,376.196 411.796,373.874 411.729,372.716 413.495,370.53 413.128,370.015 
					410.374,371.904 409.299,371.895 407.627,373.852 				"/>
				<polygon fill="#808080" points="414.195,380.479 416.049,378.155 415.986,376.998 417.749,374.813 417.387,374.3 
					414.633,376.187 413.553,376.177 411.885,378.134 				"/>
				<polygon fill="#808080" points="418.782,384.993 420.638,382.667 420.575,381.51 422.338,379.323 421.973,378.81 
					419.22,380.695 418.142,380.686 416.474,382.645 				"/>
			</g>
			<path fill="#1F3E94" d="M379.216,349.351c-30.896,0-55.945,23.174-55.945,51.762c0,28.589,25.049,51.763,55.945,51.763
				c30.901,0,55.947-23.174,55.947-51.763C435.163,372.524,410.117,349.351,379.216,349.351z M379.237,449.684
				c-28.982,0-52.474-21.746-52.474-48.573c0-26.818,23.491-48.565,52.474-48.565c28.981,0,52.478,21.747,52.478,48.565
				C431.715,427.938,408.219,449.684,379.237,449.684z"/>
		</g>
		<path fill="#777677" d="M362.448,401.902c-1.458,0-2.549-0.251-3.272-0.753c-0.727-0.502-1.091-1.183-1.091-2.034v-4.466
			c0-0.871,0.37-1.553,1.106-2.048c0.734-0.494,1.82-0.741,3.257-0.741c1.448,0,2.533,0.247,3.268,0.739
			c0.731,0.491,1.099,1.175,1.099,2.05v4.466c0,0.867-0.367,1.547-1.099,2.044C364.981,401.653,363.896,401.902,362.448,401.902z
			 M362.448,400.591c0.787,0,1.354-0.133,1.7-0.394c0.346-0.267,0.521-0.628,0.521-1.082v-4.466c0-0.466-0.176-0.827-0.521-1.088
			c-0.347-0.261-0.913-0.392-1.7-0.392c-0.781,0-1.348,0.131-1.696,0.392s-0.521,0.622-0.521,1.088v4.466
			c0,0.454,0.173,0.815,0.521,1.082C361.101,400.458,361.667,400.591,362.448,400.591z"/>
		<path fill="#777677" d="M372.178,401.902c-1.459,0-2.549-0.251-3.275-0.753s-1.088-1.183-1.088-2.034v-4.466
			c0-0.871,0.366-1.553,1.104-2.048c0.737-0.494,1.822-0.741,3.26-0.741c1.441,0,2.533,0.247,3.265,0.739
			c0.731,0.491,1.099,1.175,1.099,2.05v4.466c0,0.867-0.367,1.547-1.099,2.044C374.711,401.653,373.619,401.902,372.178,401.902z
			 M372.178,400.591c0.787,0,1.353-0.133,1.698-0.394c0.347-0.267,0.52-0.628,0.52-1.082v-4.466c0-0.466-0.173-0.827-0.52-1.088
			c-0.346-0.261-0.911-0.392-1.698-0.392s-1.354,0.131-1.7,0.392c-0.346,0.261-0.519,0.622-0.519,1.088v4.466
			c0,0.454,0.173,0.815,0.519,1.082C370.824,400.458,371.391,400.591,372.178,400.591z"/>
		<path fill="#777677" d="M383.263,392.082v9.82h-2.146v-8.321l-2.18,0.857v-1.425l2.18-0.932H383.263z"/>
		<path fill="#777677" d="M392.605,392.082v9.82h-2.143v-8.321l-2.179,0.857v-1.425l2.179-0.932H392.605z"/>
		<path fill="#777677" d="M364.179,403.666v9.822h-2.145v-8.321l-2.177,0.857V404.6l2.177-0.934H364.179z"/>
		<path fill="#777677" d="M373.757,403.666v9.822h-2.146v-8.321l-2.174,0.857V404.6l2.174-0.934H373.757z"/>
		<path fill="#777677" d="M383.263,403.666v9.822h-2.146v-8.321l-2.177,0.857V404.6l2.177-0.934H383.263z"/>
		<path fill="#777677" d="M390.817,413.599c-1.458,0-2.55-0.251-3.272-0.751c-0.729-0.505-1.092-1.183-1.092-2.036v-4.464
			c0-0.869,0.37-1.552,1.106-2.048c0.734-0.494,1.821-0.744,3.258-0.744c1.445,0,2.533,0.248,3.268,0.74
			c0.729,0.492,1.096,1.179,1.096,2.052v4.464c0,0.869-0.367,1.551-1.096,2.046C393.351,413.354,392.263,413.599,390.817,413.599z
			 M390.817,412.289c0.786,0,1.354-0.129,1.699-0.396c0.347-0.261,0.52-0.624,0.52-1.082v-4.464c0-0.468-0.173-0.827-0.52-1.09
			c-0.346-0.261-0.913-0.392-1.699-0.392c-0.784,0-1.351,0.131-1.696,0.392c-0.35,0.263-0.523,0.622-0.523,1.09v4.464
			c0,0.458,0.174,0.821,0.523,1.082C389.467,412.16,390.033,412.289,390.817,412.289z"/>
	</g>
</g>
</svg>
